<svg width="111" height="28" viewBox="0 0 111 28" fill="none" xmlns="http://www.w3.org/2000/svg">
<path fill-rule="evenodd" clip-rule="evenodd" d="M33.4764 26.49L35.6964 21.895H36.7857H43.2382L41.2983 17.88H38.7204H37.6312L39.4673 14.085L39.9549 13.08L42.6313 7.54L39.9549 2L37.2784 7.54L36.7909 8.545L32.2834 17.88L31.5521 19.395L28.1235 26.49H33.4764ZM51.7811 26.49L51.3194 25.535L43.176 8.675L40.4995 14.215L42.2734 17.885L44.2133 21.9L46.4333 26.495H51.3246L51.7811 26.49Z" fill="#0A0A0A"/>
<path fill-rule="evenodd" clip-rule="evenodd" d="M52.6787 2.48999V26.34L52.7513 26.49H57.2536V22.045V2.49499H52.6787V2.48999ZM68.115 26.485H68.5507V22.04H68.115H58.6125V26.485H68.115Z" fill="#0A0A0A"/>
<path fill-rule="evenodd" clip-rule="evenodd" d="M74.0487 26.485V22.04V2.48999H69.479V26.49L74.0487 26.485ZM75.4077 22.045V26.49H85.2784V22.045H75.4077Z" fill="#0A0A0A"/>
<path fill-rule="evenodd" clip-rule="evenodd" d="M86.2329 14.4201C86.2329 21.0051 91.7725 26.3451 98.6037 26.3451C105.435 26.3451 110.974 21.0051 110.974 14.4201C110.974 7.83512 105.435 2.49512 98.6037 2.49512C91.7725 2.49512 86.2329 7.83012 86.2329 14.4201ZM98.6089 22.0701C94.2259 22.0701 90.6677 18.6451 90.6677 14.4151C90.6677 10.1901 94.2208 6.76012 98.6089 6.76012C102.992 6.76012 106.55 10.1851 106.55 14.4151C106.545 18.6451 102.992 22.0701 98.6089 22.0701Z" fill="#0A0A0A"/>
<path fill-rule="evenodd" clip-rule="evenodd" d="M1.47326 21.3734H5.20135V24.9671H1.47326V21.3734ZM1.47326 13.2734H5.20135V16.8671H1.47326V13.2734ZM1.47326 5.21438H5.20135V8.80812H1.47326V5.21438ZM9.84417 5.28615H13.5723V8.87989H9.84417V5.28615ZM18.1832 5.28615H21.9113V8.87989H18.1832V5.28615ZM9.09962 13.8219V15.0882H9.07303H8.63162H7.94024V10.8793C7.94024 10.8793 6.86596 10.7357 5.12157 10.746C3.37719 10.7562 2.54754 10.6588 1.29244 11.4278C0.0373339 12.1968 0.0266973 12.9965 0.0266973 14.8011C0.0266973 16.6057 0.0266973 16.8825 0.0266973 17.1235C0.0266973 17.3644 0.149017 17.6976 0.601068 17.6976H2.54223C2.34545 17.9232 1.52644 18.8562 1.09035 19.3945C0.590431 20.0097 0.0107422 21.2401 0.0107422 22.5115C0.0107422 23.7778 0.0160607 24.7723 0.0905161 25.0492C0.164972 25.3106 0.303246 25.8694 0.702114 26.1565C1.42008 26.6692 4.33447 26.5051 5.19603 26.3206C7.27014 25.8797 8.0732 24.9313 8.04661 22.8037C8.02534 21.2094 8.04661 19.169 7.92961 18.9383C7.80729 18.7076 7.55201 18.805 6.43518 18.805C5.31835 18.805 3.46228 18.805 3.46228 18.805L3.42505 17.7028H5.66935C6.19586 17.7028 7.34992 17.4567 8.09447 16.7441C8.6263 16.2314 8.90285 15.9495 9.01985 15.8367L9.11026 15.811V17.2004C9.11026 17.2004 9.08898 17.7386 9.74845 17.7386C10.4079 17.7386 13.0777 17.7745 13.7371 17.7592C14.3966 17.7386 14.8327 17.7028 15.2954 17.3183C15.7527 16.9338 16.2846 16.4929 16.3112 16.0981C16.3431 15.7034 16.3112 11.6841 16.3112 11.2996C16.3112 10.9151 16.2314 10.7819 15.4921 10.7819C14.7529 10.7819 13.7052 10.8177 13.0404 10.8177C12.3703 10.8177 12.2374 10.8844 12.0938 10.6434C11.9502 10.4076 11.7375 9.68477 11.7375 9.68477H14.8593L15.774 8.89014C15.774 8.89014 16.3431 8.439 16.3431 8.04426C16.3431 7.64951 16.4122 3.72766 16.4122 3.24576C16.4122 2.76386 16.4335 2.53317 16.1516 2.26658C15.8751 2 15.072 2.07177 14.0988 2.07177C13.1202 2.07177 12.6416 2.07177 11.9821 2.07177C11.3226 2.07177 10.8334 2.38962 10.5249 2.68696C10.2165 2.98431 9.07835 4.06602 9.07835 6.61394H7.94024V2.28709C7.94024 2.28709 6.86596 2.14354 5.12157 2.15379C3.37719 2.16405 2.59009 2.21531 1.35626 3.08683C0.127751 3.95835 0.0213867 5.34253 0.0213867 6.74722C0.0213867 8.55691 0.0213867 8.82862 0.0213867 9.06957C0.0213867 9.31052 0.143707 9.64375 0.595757 9.64375C1.04781 9.64375 5.14285 9.64375 5.66935 9.64375C6.19586 9.64375 7.34992 9.39767 8.09447 8.68507C8.83903 7.96735 9.08367 7.71102 9.08367 7.71102V9.48992C9.08367 9.48992 9.08367 9.69498 9.23258 9.68473C9.38149 9.67447 11.019 9.68473 11.019 9.68473C11.019 9.68473 10.817 9.90005 10.5622 10.1922C10.3069 10.4844 9.78042 11.1304 9.63682 11.4636C9.37623 12.043 9.1369 12.3045 9.11563 13.8271V13.8219Z" fill="#0A0A0A"/>
<path fill-rule="evenodd" clip-rule="evenodd" d="M21.9111 6.42417V8.88493H18.4383L19.2307 9.31044L18.6989 9.72057C18.8584 9.7257 19.0393 9.7257 19.236 9.7257C19.2307 9.73082 17.2204 11.5867 17.2523 13.263C17.2523 13.263 17.2736 15.4931 17.3108 16.4723C17.3481 17.4515 17.6512 17.6822 17.8692 17.6822H18.0235L18.1086 17.5284C18.1086 17.5284 18.082 17.2618 18.1671 16.8619H18.1086V13.2733H21.8367V13.5911C23.7299 12.5863 24.7723 11.3354 25.118 10.8741C25.0542 10.8433 24.9691 10.8279 24.8574 10.8228C24.5277 10.8125 22.5014 10.833 21.6346 10.833C20.7677 10.833 20.7677 10.8433 20.7677 10.6587C20.7677 10.4742 20.7677 9.7257 20.7677 9.7257C22.4748 9.7257 23.5172 9.7257 24.182 9.22329C24.9 8.685 25.3573 7.34183 25.3786 6.53183C25.3892 6.08581 25.3733 5.12201 25.352 4.30176L21.9111 6.42417Z" fill="#F7931A"/>
<path fill-rule="evenodd" clip-rule="evenodd" d="M16.3002 16.0827C16.3268 15.7239 16.3055 12.3916 16.3002 11.4842C15.9917 11.4432 15.061 11.4022 14.3697 12.3865C14.1037 12.7658 13.7793 13.0478 13.4177 13.2734H13.5772V16.8671H9.84915V15.6316C9.41837 16.3493 9.17374 17.1234 9.11523 17.3029C9.12055 17.3285 9.13119 17.3593 9.14183 17.3849C9.17905 17.4259 9.23224 17.4977 9.29074 17.5848C9.38646 17.6617 9.53006 17.7181 9.74279 17.7181C10.4022 17.7181 13.072 17.754 13.7315 17.7386C14.3909 17.7181 14.827 17.6822 15.2897 17.2977C15.7418 16.9184 16.2683 16.4775 16.3002 16.0827Z" fill="#F7931A"/>
<path fill-rule="evenodd" clip-rule="evenodd" d="M8.04103 22.7986C8.02508 21.4862 8.03571 19.8815 7.97189 19.2202C6.11583 19.4971 5.62123 20.4455 5.20109 21.6759V24.9671H2.6377V26.4949C3.63753 26.5102 4.71713 26.418 5.18513 26.3154C7.25925 25.8745 8.0623 24.9261 8.04103 22.7986Z" fill="#F7931A"/>
<path fill-rule="evenodd" clip-rule="evenodd" d="M6.55225 17.5542C7.0628 17.4158 7.64249 17.1543 8.0839 16.7339C8.61572 16.2213 8.89227 15.9393 9.00927 15.8265L9.09968 15.8009V17.1902C9.09968 17.1902 9.09968 17.2415 9.11564 17.3081C9.16882 17.1287 9.41346 16.3545 9.84956 15.6368V13.2786H13.4234C13.7851 13.0479 14.1095 12.7659 14.3754 12.3917C15.0668 11.4074 16.0028 11.4433 16.3059 11.4894C16.3059 11.3971 16.3059 11.3254 16.3059 11.2895C16.3059 10.905 16.2261 10.7717 15.4869 10.7717C14.7477 10.7717 13.7 10.8076 13.0352 10.8076C12.5885 10.8076 12.381 10.8383 12.2481 10.7819L12.3864 11.2331L10.0517 11.7304L10.5675 10.1821C10.2218 10.582 9.78042 11.1254 9.63151 11.4587C9.37091 12.038 9.13159 12.2994 9.11032 13.822V15.0883H9.08373H8.64232H7.95094V14.7192L7.78608 15.0216V16.1956L6.55225 17.5542Z" fill="#F7931A"/>
<path fill-rule="evenodd" clip-rule="evenodd" d="M24.2565 2.15894L20.9272 4.54793L21.9111 5.28616L21.9271 5.29641L21.9111 5.30666V6.41914L25.3627 4.29673C25.3414 3.63027 25.3148 3.05609 25.2882 2.91254C25.2244 2.55881 24.8202 2.28197 24.2565 2.15894Z" fill="#F7931A"/>
<path fill-rule="evenodd" clip-rule="evenodd" d="M21.9111 5.28615L20.9272 4.54792L24.2564 2.15892C24.2086 2.14867 24.1607 2.13842 24.1129 2.13329C24.1129 2.13329 23.0173 2 21.7569 2C20.5018 2 19.0446 2.36399 18.2468 3.02019C17.4491 3.6764 17.2896 4.82988 17.2896 6.40375C17.2896 7.97761 17.3268 9.20799 17.5289 9.4797C17.6565 9.64888 17.9756 9.70527 18.6989 9.72065L19.2307 9.31053L18.4383 8.88502H18.183V8.7466L18.1564 8.73122L18.183 8.71584V5.28615H21.9111Z" fill="#F7931A"/>
<path fill-rule="evenodd" clip-rule="evenodd" d="M12.0776 10.628C11.934 10.3922 11.7212 9.66936 11.7212 9.66936H14.843L15.7578 8.87474C15.7578 8.87474 16.3268 8.4236 16.3268 8.02885C16.3268 7.79815 16.3534 6.35758 16.3694 5.10669L15.6408 5.13745L13.572 6.44473V8.87986H9.8439V8.79784L9.74285 8.86448L9.10466 7.711L9.07275 7.78277V9.05929V9.47968C9.07275 9.47968 9.07275 9.68474 9.22166 9.67449H11.0139C11.0139 9.67449 10.8118 9.8898 10.5565 10.182L10.0407 11.7303L12.3754 11.233L12.2371 10.7818C12.1733 10.7562 12.1254 10.7101 12.0776 10.628Z" fill="#F7931A"/>
<path fill-rule="evenodd" clip-rule="evenodd" d="M7.93487 14.719V10.874C7.93487 10.874 7.86042 10.8638 7.71683 10.8484L7.42432 13.0169L5.19598 15.2009V16.867H1.46789V16.6825L1.39875 16.7081L1.36152 17.4361L1.23389 17.6924H2.18053L2.73895 17.4002L1.54235 19.1483L2.79745 19.784L3.33459 17.4002L4.82902 17.6924H5.65335C5.8714 17.6924 6.19049 17.6514 6.54681 17.554L7.76469 16.1903V15.0163L7.93487 14.719Z" fill="#F7931A"/>
<path fill-rule="evenodd" clip-rule="evenodd" d="M1.47326 5.21438H5.20135V8.80813H1.47326V5.21438ZM5.65872 9.63864C6.18522 9.63864 7.33928 9.39256 8.08384 8.67996C8.82839 7.96224 9.07303 7.70591 9.07303 7.70591V7.78793L9.10494 7.71616L9.74313 8.86965L9.84417 8.803V5.29128H13.5723V6.44989L15.6411 5.14261L16.3697 5.11185C16.3856 4.22495 16.3963 3.43545 16.3963 3.23552C16.3963 2.75362 16.4175 2.52292 16.1357 2.25634C15.8591 1.98975 15.0561 2.06153 14.0828 2.06153C13.1043 2.06153 12.6256 2.06153 11.9662 2.06153C11.3067 2.06153 10.8174 2.37938 10.509 2.67672C10.2005 2.97406 9.06239 4.05577 9.06239 6.60369H7.92429V2.27684C7.92429 2.27684 6.85 2.1333 5.10562 2.14355C3.36124 2.15381 2.57945 2.20507 1.34562 3.07659C0.117107 3.94811 0.0107422 5.33229 0.0107422 6.73698C0.0107422 8.54667 0.0107422 8.81838 0.0107422 9.05933C0.0107422 9.30028 0.133062 9.63351 0.585113 9.63351C1.04248 9.63863 5.13221 9.63864 5.65872 9.63864Z" fill="#F7931A"/>
<path fill-rule="evenodd" clip-rule="evenodd" d="M5.1105 10.7409C3.36612 10.7512 2.53647 10.6538 1.28137 11.4228C0.0262616 12.1917 0.015625 12.9915 0.015625 14.7961C0.015625 16.6006 0.015625 16.8775 0.015625 17.1184C0.015625 17.3594 0.137945 17.6926 0.589995 17.6926H1.23882L1.36646 17.4363L1.40369 16.7083L1.47282 16.6826V13.2735H5.20091V15.2011L7.42926 13.0171L7.72176 10.8486C7.32289 10.8076 6.39752 10.7307 5.1105 10.7409Z" fill="#F7931A"/>
<path fill-rule="evenodd" clip-rule="evenodd" d="M6.42444 18.8C5.30761 18.8 3.45154 18.8 3.45154 18.8L3.41431 17.6977H4.83428L3.33986 17.4055L2.80271 19.7894L1.54761 19.1537L2.74421 17.4055L2.1858 17.6977H2.53148C2.33471 17.9233 1.5157 18.8563 1.0796 19.3946C0.579688 20.0098 0 21.2402 0 22.5116C0 23.7779 0.00531804 24.7724 0.0797734 25.0493C0.154229 25.3107 0.292504 25.8695 0.691372 26.1566C1.01578 26.3924 1.80288 26.4847 2.63785 26.5001V24.9724H1.46783V21.3735H5.19592V21.676C5.61607 20.4456 6.11066 19.4972 7.96673 19.2203C7.95077 19.0768 7.93482 18.9794 7.91355 18.9384C7.80186 18.7025 7.54127 18.8 6.42444 18.8Z" fill="#F7931A"/>
</svg>
